<?xml version="1.0" standalone="no"?>
<!DOCTYPE svg PUBLIC "-//W3C//DTD SVG 20010904//EN"
 "http://www.w3.org/TR/2001/REC-SVG-20010904/DTD/svg10.dtd">
<svg version="1.0" xmlns="http://www.w3.org/2000/svg"
 width="16.000000pt" height="16.000000pt" viewBox="0 0 16.000000 16.000000"
 preserveAspectRatio="xMidYMid meet">
<metadata>
Created by potrace 1.11, written by Peter Selinger 2001-2013
</metadata>
<g transform="translate(0.000000,16.000000) scale(0.004000,-0.004000)"
fill="#000000" stroke="none">
<path d="M0 2000 l0 -2000 2000 0 2000 0 0 2000 0 2000 -2000 0 -2000 0 0
-2000z m1384 1269 c57 -16 128 -88 174 -177 23 -44 64 -155 94 -259 30 -100
62 -193 71 -206 l16 -25 93 25 c362 95 743 -18 1057 -313 125 -117 191 -206
243 -325 122 -278 125 -469 11 -679 -46 -85 -133 -199 -195 -255 -127 -114
-496 -252 -803 -299 -256 -39 -613 -40 -847 -1 -280 47 -464 189 -513 396 -17
76 -20 293 -5 437 32 297 129 861 191 1105 75 297 186 508 298 567 42 22 62
24 115 9z"/>
<path d="M2234 2025 c-149 -74 -307 -228 -370 -360 -39 -80 -41 -102 -15 -153
39 -75 136 -107 326 -107 150 1 202 13 281 67 47 31 94 126 94 188 0 127 -110
339 -201 386 -37 19 -36 19 -115 -21z"/>
</g>
</svg>
