<?xml version="1.0" standalone="no"?>
<!DOCTYPE svg PUBLIC "-//W3C//DTD SVG 20010904//EN"
 "http://www.w3.org/TR/2001/REC-SVG-20010904/DTD/svg10.dtd">
<svg version="1.0" xmlns="http://www.w3.org/2000/svg"
 width="400.000000pt" height="400.000000pt" viewBox="0 0 400.000000 400.000000"
 preserveAspectRatio="xMidYMid meet">
<metadata>
Created by potrace 1.11, written by Peter Selinger 2001-2013
</metadata>
<g transform="translate(0.000000,400.000000) scale(0.100000,-0.100000)"
fill="#000000" stroke="none">
<path d="M0 2000 l0 -2000 2000 0 2000 0 0 2000 0 2000 -2000 0 -2000 0 0
-2000z m3453 1045 c108 -28 172 -88 197 -185 15 -57 7 -107 -31 -183 -62 -123
-186 -215 -320 -239 -35 -6 -65 -13 -67 -14 -2 -1 8 -25 22 -52 42 -82 76
-218 88 -349 21 -218 -19 -455 -105 -636 -52 -108 -73 -137 -170 -236 -150
-154 -343 -245 -592 -281 -267 -38 -581 32 -779 174 -77 55 -192 176 -249 263
l-42 64 -3 -230 -2 -231 -255 0 -255 0 0 740 0 740 -22 0 c-23 0 -416 -44
-491 -55 l-37 -5 2 222 3 223 120 16 c66 9 300 42 521 73 220 31 403 56 407
56 4 0 7 -114 7 -252 l0 -253 39 60 c120 183 293 324 479 392 150 55 362 81
522 64 177 -19 315 -62 443 -137 32 -19 60 -34 63 -34 2 0 4 10 4 23 0 45 33
119 69 158 41 42 143 95 212 108 70 14 160 12 222 -4z"/>
<path d="M3317 2926 c-49 -13 -97 -49 -97 -73 0 -20 21 -16 62 12 82 56 93 15
13 -46 -89 -67 -122 -144 -73 -170 46 -25 238 7 238 40 0 24 -33 33 -102 29
l-72 -6 24 20 c103 81 140 120 140 149 0 25 -6 33 -35 45 -40 16 -36 16 -98 0z"/>
</g>
</svg>
