<?xml version="1.0" encoding="iso-8859-1"?><!-- Generator: Adobe Illustrator 16.0.0, SVG Export Plug-In . SVG Version: 6.00 Build 0) --><!DOCTYPE svg PUBLIC "-//W3C//DTD SVG 1.1//EN" "http://www.w3.org/Graphics/SVG/1.1/DTD/svg11.dtd"><svg version="1.1" id="Calque_1" xmlns="http://www.w3.org/2000/svg" xmlns:xlink="http://www.w3.org/1999/xlink" x="0px" y="0px" width="32px" height="32px" viewBox="7.025 7.025 497.951 497.95" style="enable-background:new 7.025 7.025 497.951 497.95;" xml:space="preserve"><linearGradient id="linkedin_2_" gradientUnits="userSpaceOnUse" x1="-974.4822" y1="1306.7734" x2="-622.3783" y2="1658.8774" gradientTransform="matrix(1 0 0 1 1054.4302 -1226.8252)"><stop offset="0" style="stop-color:#2489BE"/><stop offset="1" style="stop-color:#0575B3"/></linearGradient><path id="linkedin_1_" style="fill:url(#linkedin_2_);" d="M256,7.025C118.494,7.025,7.025,118.494,7.025,256	S118.494,504.975,256,504.975S504.976,393.506,504.976,256C504.975,118.494,393.504,7.025,256,7.025z M189.573,376.368h-54.665	V199.761h54.665V376.368z M161.98,176.633c-17.853,0-32.326-14.591-32.326-32.587c0-17.998,14.475-32.588,32.326-32.588	c17.851,0,32.324,14.59,32.324,32.588C194.305,162.043,179.832,176.633,161.98,176.633z M394.43,376.368h-54.4	c0,0,0-67.278,0-92.704s-9.658-39.619-29.763-39.619c-21.881,0-33.312,14.782-33.312,39.619c0,27.198,0,92.704,0,92.704h-52.43	V199.761h52.43v23.786c0,0,15.771-29.173,53.219-29.173c37.449,0,64.257,22.866,64.257,70.169	C394.43,311.849,394.43,376.368,394.43,376.368z"/></svg>